<svg width="260" height="80" viewBox="0 0 260 80" fill="none" xmlns="http://www.w3.org/2000/svg">
<g clip-path="url(#clip0_76_1327)">
<path d="M23.1564 33.4886H27.5765L36.0008 63.2217H32.3303L29.9534 54.6787H20.4824L18.2701 63.2217H14.5996L23.1519 33.4886H23.1564ZM25.3276 35.8868H25.2453L21.2823 51.7013H29.2084L25.3276 35.8868Z" fill="#0079C1"/>
<path d="M41.9249 53.8054C41.9249 58.181 43.1773 60.9502 47.5974 60.9502C50.9753 60.9502 53.3157 59.5068 53.3157 55.9955C53.3157 52.1584 51.4781 51.2036 48.4339 50.0498L44.0092 48.3982C41.2575 47.3665 39.1686 45.3031 39.1686 40.5927C39.1686 35.8823 42.4642 32.9095 47.346 32.9095C52.5569 32.9095 55.6468 35.8416 55.8982 41.2941H52.5569C52.5569 38.0317 50.9342 35.8869 47.5928 35.8869C43.8812 35.8869 42.6288 38.1131 42.6288 40.5927C42.6288 43.3167 43.3373 44.5158 45.2571 45.2172L50.0566 46.9909C54.8149 48.7692 56.7713 51.5746 56.7713 55.4977C56.7713 61.1131 53.2654 63.9231 47.5106 63.9231C41.7557 63.9231 38.5835 60.2081 38.5835 53.8099H41.9157V53.8009L41.9249 53.8054Z" fill="#0079C1"/>
<path d="M69.7066 63.2217H66.3698V36.4615H58.5718V33.4886H77.4681V36.4615H69.7112V63.2217H69.7066Z" fill="#0079C1"/>
<path d="M84.5165 63.2217H81.1797V33.4886H90.3124C95.569 33.4886 99.0338 36.009 99.0338 41.5882C99.0338 44.9773 97.0729 47.9502 93.6081 48.4434V48.5248C96.7803 48.8959 98.7413 51.5837 98.7413 55.2579C98.7413 61.4524 99.2852 61.6606 99.7423 62.5656V63.2262H96.3644C95.697 61.2896 95.4045 59.552 95.4045 56.3303C95.4045 52.4072 93.6538 50.1402 89.9376 50.1402H84.5165V63.2262V63.2217ZM84.5165 47.1583H90.3124C92.6482 47.1583 95.569 46.0859 95.569 41.7058C95.569 37.3257 93.1053 36.4615 90.189 36.4615H84.5165V47.1538V47.1583Z" fill="#0079C1"/>
<path d="M111.792 33.4886H116.212L124.64 63.2217H120.97L118.593 54.6787H109.122L106.91 63.2217H103.239L111.792 33.4886ZM113.958 35.8868H113.876L109.913 51.7013H117.839L113.958 35.8868Z" fill="#0079C1"/>
<path d="M143.67 60.2488H155.929V63.2217H140.328V33.4886H143.665V60.2488H143.67Z" fill="#0079C1"/>
<path d="M163.32 63.2217H159.983V33.4886H163.32V63.2217Z" fill="#0079C1"/>
<path d="M174.844 33.4886L183.355 57.8099C183.729 58.8416 184.022 59.7104 184.397 61.0814H184.52C184.479 60.0045 184.397 58.8461 184.397 57.7737V33.4932H187.734V63.2262H182.267L173.884 39.4434C173.385 38.0814 173.047 36.7601 172.759 34.9864H172.677C172.718 36.4705 172.759 38 172.759 39.5248V63.2262H169.422V33.4886H174.848H174.844Z" fill="#0079C1"/>
<path d="M197.2 33.4886V54.8823C197.2 57.1945 197.533 60.9547 202.877 60.9547C208.22 60.9547 208.545 57.1945 208.545 54.8823V33.4886H211.882V56.0769C211.882 61.3619 208.334 63.923 202.877 63.923C197.419 63.923 193.867 61.3665 193.867 56.0769V33.4886H197.2Z" fill="#0079C1"/>
<path d="M220.041 33.4886L226.344 45.0905L232.643 33.4886H236.355L228.305 47.9457L236.524 63.2217H232.73L226.349 50.7918L219.84 63.2217H216.128L224.429 47.9457L216.338 33.4886H220.045H220.041Z" fill="#0079C1"/>
<path d="M175.675 76.6697H14.819C8.48825 76.6697 3.35965 71.5882 3.35965 65.3258V30.285C3.35965 24.0226 8.48825 18.9412 14.819 18.9412H118.196C119.123 18.9412 119.878 18.1946 119.878 17.276C119.878 16.3574 119.123 15.6108 118.196 15.6108H14.819C6.63701 15.6154 0 22.1855 0 30.285V65.3258C0 73.4298 6.63701 80 14.8236 80H175.675V76.6742V76.6697Z" fill="#0079C1"/>
<path d="M245.181 15.6154H141.855C140.927 15.6154 140.173 16.362 140.173 17.2806C140.173 18.1991 140.927 18.9457 141.855 18.9457H245.181C251.512 18.9457 256.64 24.0227 256.64 30.2896V65.3258C256.64 71.5928 251.507 76.6742 245.176 76.6742H175.68V79.9955H245.181C253.354 79.9955 260 73.4208 260 65.3213V30.2896C260 22.1991 253.349 15.6154 245.181 15.6154Z" fill="#0079C1"/>
<path d="M143.007 10.2534L134.185 8.75113C133.426 7.1629 130.848 1.76018 130.848 1.76018L130.007 0L125.82 8.74661L116.994 10.2489L123.297 17.0136L121.885 26.6063L130.003 22.1946L138.121 26.6063L136.699 17.0136C137.823 15.8054 141.654 11.6968 141.841 11.4977L143.002 10.2489L143.007 10.2534ZM135.575 16.5837L136.772 24.5928L130.003 20.914L123.228 24.5928L124.431 16.5792L119.156 10.9231L126.529 9.66063L129.998 2.40724L133.463 9.66063L140.84 10.9231L135.57 16.5792L135.575 16.5837Z" fill="#0079C1"/>
<path d="M125.029 18.0588L127.479 21.3529L128.531 20.7828L124.462 12.4479L129.815 20.0814L129.998 19.9819L131.867 21L127.754 12.0271L134.761 22.5701L135.712 23.0859L135.561 22.0678L131.04 11.6063L134.925 17.7466L134.711 16.3167L135.899 15.0452L134.327 11.1945L136.361 14.552L139.24 11.466L132.914 10.3891L129.998 4.28955L127.082 10.3891L120.76 11.466L125.29 16.3167L125.029 18.0588Z" fill="#0079C1"/>
<path d="M124.773 19.8009L124.289 23.086L125.998 22.1584L124.773 19.8009Z" fill="#0079C1"/>
<path d="M246.233 37.2579C246.233 39.4299 244.482 41.1584 242.32 41.1584C240.158 41.1584 238.38 39.4254 238.38 37.2579C238.38 35.0905 240.144 33.3846 242.315 33.3846C244.486 33.3846 246.237 35.1222 246.237 37.2579H246.233ZM238.969 37.2579C238.969 39.1086 240.45 40.5837 242.306 40.5837C244.162 40.5837 245.634 39.1177 245.634 37.267C245.634 35.4163 244.166 33.9638 242.306 33.9638C240.446 33.9638 238.969 35.4254 238.969 37.2579ZM240.839 35.077H242.768C243.517 35.077 244.336 35.3168 244.336 36.2444C244.336 37.172 243.668 37.4344 242.946 37.4344L244.258 39.4389H243.613L242.37 37.4344H241.401V39.4389H240.839V35.077ZM241.401 37.0227H242.695C243.101 37.0227 243.769 36.9503 243.769 36.2263C243.769 35.5747 243.17 35.4932 242.64 35.4932H241.401V37.0227Z" fill="#0079C1"/>
</g>
<defs>
<clipPath id="clip0_76_1327">
<rect width="260" height="80" fill="white"/>
</clipPath>
</defs>
</svg>
