<svg width="120" height="120" viewBox="0 0 120 120" fill="none" xmlns="http://www.w3.org/2000/svg">
<path d="M115.5 64.2116C115.5 64.2116 106.424 61.1859 95.7288 63.4154L87.3008 75.36C87.3008 75.36 104.155 74.7234 112.583 78.5458L106.586 70.4224C106.586 70.4231 110.962 67.2379 115.5 64.2116Z" fill="url(#paint0_linear_562_1455)"/>
<path d="M97.1367 71.8322L96.6699 69.094C96.6699 69.094 100.771 68.9332 103.397 69.4162L97.1367 71.8322Z" fill="#1A171B" stroke="#1A171B" stroke-width="1.0451"/>
<path d="M5.5 64.1801C5.5 64.1801 14.5758 61.1544 25.2732 63.3839L33.7006 75.3292C33.7006 75.3292 16.8451 74.6932 8.41776 78.515L14.4142 70.3929C14.4142 70.3922 10.0373 67.2071 5.5 64.1801Z" fill="url(#paint1_linear_562_1455)"/>
<path d="M26.2301 71.8007L26.0391 69.0632C26.0391 69.0632 21.9379 68.9017 19.312 69.3854L26.2301 71.8007Z" fill="#1A171B" stroke="#1A171B" stroke-width="1.0451"/>
<path d="M63.0229 50.2468C63.0229 51.1453 62.2789 51.8751 61.3667 51.8751C60.4551 51.8751 59.7104 51.1453 59.7104 50.2468C59.7104 49.3489 60.4551 48.6198 61.3667 48.6198C62.2789 48.6198 63.0229 49.3489 63.0229 50.2468Z" fill="#FCEBBA"/>
<path d="M99.464 56.5003C99.464 77.2055 82.3801 93.9925 61.312 93.9925C40.2453 93.9925 23.1621 77.2055 23.1621 56.5003C23.1621 35.7937 40.2453 19.0074 61.312 19.0074C82.3801 19.0081 99.464 35.7937 99.464 56.5003Z" fill="url(#paint2_radial_562_1455)" stroke="#1A171B" stroke-width="1.0451"/>
<path d="M100.488 56.501C100.488 77.7628 82.9452 95 61.3127 95C39.6796 95 22.1377 77.7621 22.1377 56.501C22.1377 35.2392 39.6796 18 61.3127 18C82.9458 18.0007 100.488 35.2398 100.488 56.501Z" fill="white" stroke="#1A171B" stroke-width="1.0451"/>
<path d="M84.0774 56.501C84.0774 68.8597 73.889 78.872 61.3151 78.872C48.7384 78.872 38.5493 68.8597 38.5493 56.501C38.5493 44.1417 48.7378 34.1281 61.3151 34.1281C73.889 34.1281 84.0774 44.1417 84.0774 56.501Z" fill="url(#paint3_linear_562_1455)"/>
<path d="M37.4359 44.5053L36.6672 46.3588L30.9212 44.0571L30.6935 44.6064L36.4395 46.9082L35.6708 48.7623L28.4883 45.8843L30.2547 41.6273L37.4359 44.5053Z" fill="#030394"/>
<path d="M32.6082 37.6467L33.845 36.0433C34.1789 35.6094 34.4701 35.3016 34.7185 35.1198C34.9669 34.938 35.2013 34.8363 35.4217 34.8159C35.6421 34.7956 35.8605 34.833 36.0769 34.9282C36.2933 35.024 36.5944 35.2156 36.9811 35.5031L37.5194 35.9041C37.9134 36.1975 38.1705 36.4522 38.2881 36.6668C38.4069 36.8827 38.431 37.1334 38.3622 37.4209C38.2921 37.7084 38.1238 38.0267 37.8553 38.3739L37.5261 38.8018L40.0144 40.654L38.7869 42.2462L32.6082 37.6467ZM34.8928 36.842L36.4656 38.0129C36.5023 37.9696 36.5337 37.9309 36.5597 37.8987C36.6719 37.7523 36.714 37.6237 36.6853 37.5134C36.6559 37.4025 36.5277 37.2621 36.2986 37.0908L35.791 36.7134C35.58 36.5559 35.4171 36.4863 35.3035 36.5047C35.1887 36.5224 35.0518 36.6353 34.8928 36.842Z" fill="#030394"/>
<path d="M44.8209 31.8184C45.2997 32.4222 45.6249 32.86 45.7946 33.1336C45.9649 33.4073 46.0557 33.7073 46.0671 34.0322C46.0784 34.3577 45.9976 34.676 45.8253 34.9884C45.6523 35.2995 45.3919 35.5883 45.0446 35.8554C44.7147 36.1081 44.3768 36.2834 44.0308 36.3792C43.6849 36.4757 43.349 36.4803 43.0217 36.3923C42.6945 36.305 42.418 36.1495 42.191 35.925C41.9639 35.7012 41.6059 35.2798 41.1144 34.6622L40.299 33.6344C39.8202 33.0313 39.4956 32.5928 39.3253 32.3198C39.1557 32.0461 39.0642 31.7468 39.0528 31.4213C39.0415 31.0957 39.1216 30.7768 39.2946 30.465C39.4675 30.1539 39.728 29.8645 40.0753 29.598C40.4052 29.3453 40.7431 29.1707 41.089 29.0742C41.435 28.9771 41.7716 28.9738 42.0988 29.0605C42.4247 29.1484 42.7018 29.3046 42.9289 29.5278C43.156 29.7516 43.5146 30.1723 44.0055 30.7905L44.8209 31.8184ZM41.652 31.0741C41.4303 30.7945 41.2727 30.6284 41.1792 30.5746C41.085 30.5208 40.9895 30.5326 40.89 30.6081C40.8065 30.6718 40.7671 30.7525 40.7725 30.8496C40.7785 30.9474 40.904 31.1502 41.1498 31.4593L43.3764 34.2638C43.6535 34.6124 43.8385 34.8165 43.9327 34.8755C44.0268 34.9353 44.127 34.9235 44.2339 34.8414C44.3427 34.7581 44.3754 34.6576 44.3314 34.5402C44.2866 34.4227 44.1243 34.1877 43.8438 33.834L41.652 31.0741Z" fill="#030394"/>
<path d="M45.7705 26.1818L48.8612 24.8167L49.4977 26.2074L48.2602 26.7541L48.8632 28.072L50.0206 27.5608L50.6256 28.8806L49.4676 29.3926L50.1662 30.9205L51.5266 30.3193L52.163 31.7094L48.9487 33.1304L45.7705 26.1818Z" fill="#030394"/>
<path d="M52.8734 23.5119L54.8756 23.1417L55.4907 26.3026C55.8653 26.2238 56.0202 25.9843 55.9575 25.5846L55.7157 24.1163C55.6256 23.5749 55.663 23.1909 55.8292 22.9651L57.6745 22.6245C57.5289 22.8398 57.5122 23.2316 57.6244 23.8013L57.8802 25.0857C58.0344 25.8615 57.6705 26.3866 56.7862 26.6616C57.7119 26.6025 58.2468 26.9681 58.3917 27.7577L58.6108 28.9522C58.7163 29.5206 58.8819 29.9078 59.1083 30.1146L57.2631 30.4565C57.012 30.3082 56.835 29.9643 56.7315 29.4247L56.4523 27.9638C56.4169 27.7787 56.3301 27.6408 56.1939 27.5496C56.0563 27.4584 55.8967 27.4282 55.7124 27.459L56.3101 30.6331L54.3079 31.0026L52.8734 23.5119Z" fill="#030394"/>
<path d="M65.8823 22.7295L65.7828 24.2516L64.5787 24.1754L64.1833 30.2563L62.1551 30.1297L62.5505 24.0481L61.3511 23.9733L61.4492 22.4519L65.8823 22.7295Z" fill="#030394"/>
<path d="M75.2225 26.9517L73.834 26.4154L71.5654 32.0914L69.6694 31.3596L72.5057 24.2646L75.7901 25.5333L75.2225 26.9517Z" fill="#030394"/>
<path d="M80.6345 33.7375C80.1811 34.3597 79.8458 34.7902 79.6275 35.0278C79.4091 35.2654 79.1419 35.4361 78.8287 35.5391C78.5135 35.6422 78.1803 35.6559 77.8277 35.5811C77.4737 35.5063 77.1184 35.3435 76.7598 35.0908C76.4185 34.8519 76.1527 34.5828 75.9611 34.2842C75.7694 33.9856 75.6692 33.6699 75.6619 33.3371C75.6545 33.0044 75.7293 32.6985 75.8829 32.4216C76.0372 32.1446 76.3464 31.6871 76.8112 31.0492L77.5819 29.9892C78.0353 29.367 78.3713 28.9364 78.5896 28.6982C78.8087 28.4606 79.0752 28.29 79.389 28.1869C79.7029 28.0839 80.0368 28.0694 80.3901 28.1449C80.7427 28.2191 81.1 28.3832 81.458 28.6345C81.7986 28.8741 82.0644 29.1432 82.256 29.4418C82.4484 29.7411 82.5486 30.0568 82.5546 30.3896C82.5619 30.7223 82.4885 31.0269 82.3342 31.3045C82.1799 31.5814 81.87 32.0396 81.4066 32.6769L80.6345 33.7375ZM80.4636 30.5392C80.6733 30.2517 80.7908 30.0555 80.8169 29.9518C80.8422 29.8481 80.8035 29.7608 80.7027 29.6893C80.6152 29.6282 80.5257 29.6144 80.4329 29.6479C80.3394 29.6807 80.1771 29.856 79.946 30.1756L77.8403 33.0687C77.5779 33.4284 77.4316 33.6614 77.4009 33.7664C77.3695 33.872 77.4089 33.9633 77.5198 34.0401C77.632 34.1188 77.7395 34.1214 77.841 34.046C77.9419 33.9711 78.1262 33.7513 78.3913 33.3864L80.4636 30.5392Z" fill="#030394"/>
<path d="M83.3669 43.553L82.5141 42.4562L83.5766 41.6594L81.5844 39.0952L80.5226 39.8919L79.6731 38.7985L82.0212 37.0362L82.273 37.3611C82.9107 37.1531 83.6834 36.7947 84.5917 36.2867C85.4999 35.7781 86.4422 35.1572 87.4193 34.4247L87.6056 34.2849L90.3417 37.8074L85.4712 41.4619L85.7237 41.7861L83.3669 43.553ZM84.2337 39.8703L87.8874 37.1288L87.5201 36.6569L87.4754 36.6917C86.296 37.5771 84.9957 38.3542 83.5752 39.0216L84.2337 39.8703Z" fill="#030394"/>
<path d="M94.1202 45.7129L87.2723 49.4592L86.543 47.5487L87.8079 46.9671L87.5521 46.2977L86.2044 46.6672L85.4664 44.7337L93.0877 43.0101L94.1202 45.7129ZM89.0767 46.4434C89.8628 46.0457 90.8425 45.5757 92.0159 45.0343C90.554 45.3565 89.4915 45.6118 88.831 45.8002L89.0767 46.4434Z" fill="#030394"/>
<path d="M98.2775 56.5003C98.2775 36.4402 81.7239 20.1737 61.3123 20.1737C40.9 20.1737 24.3491 36.4402 24.3491 56.5003C24.3491 76.561 40.9 92.8268 61.3123 92.8268C81.7239 92.8268 98.2775 76.561 98.2775 56.5003ZM97.4801 56.5003C97.4801 76.1003 81.2564 92.0425 61.3123 92.0425C41.3708 92.0425 25.1478 76.1003 25.1478 56.5003C25.1478 36.9016 41.3708 20.958 61.3123 20.958C81.2571 20.958 97.4801 36.9016 97.4801 56.5003Z" fill="url(#paint4_linear_562_1455)"/>
<path d="M61.3141 32.2372C47.528 32.2372 36.3545 43.1027 36.3545 56.5004C36.3545 69.8981 47.528 80.7636 61.3141 80.7636C75.0941 80.7636 86.2716 69.8974 86.2716 56.5004C86.2716 43.1034 75.0941 32.2372 61.3141 32.2372ZM61.3141 80.2392C47.8486 80.2392 36.8954 69.5916 36.8954 56.5004C36.8954 43.4092 47.8486 32.7622 61.3141 32.7622C74.7809 32.7622 85.7333 43.4092 85.7333 56.5004C85.734 69.5922 74.7809 80.2392 61.3141 80.2392Z" fill="#ADAFB2"/>
<path d="M61.3135 20.1737C40.8985 20.1737 24.3477 36.4402 24.3477 56.5009C24.3477 76.5616 40.8985 92.8268 61.3135 92.8268C81.7245 92.8268 98.2794 76.5616 98.2794 56.5009C98.2794 36.4402 81.7251 20.1737 61.3135 20.1737ZM61.3135 92.0438C41.372 92.0438 25.1471 76.0996 25.1471 56.5009C25.1471 36.9016 41.3714 20.958 61.3135 20.958C81.257 20.958 97.4813 36.9016 97.4813 56.5009C97.4813 76.0996 81.2576 92.0438 61.3135 92.0438Z" fill="#ADAFB2"/>
<path d="M36.7765 71.7744L37.2159 72.413C37.3549 72.6158 37.4437 72.7786 37.4837 72.9033C37.5238 73.028 37.5165 73.1553 37.4644 73.2827C37.4116 73.4113 37.2781 73.5459 37.063 73.6883C36.9174 73.7848 36.8012 73.83 36.7131 73.8222C36.6249 73.8149 36.5194 73.7552 36.3978 73.6436C36.4653 73.8143 36.4787 73.9521 36.4366 74.0558C36.3945 74.1615 36.2923 74.2672 36.1307 74.3741L35.9003 74.5264C35.7327 74.6386 35.5951 74.7023 35.4883 74.7174C35.3814 74.7332 35.2839 74.7095 35.1971 74.6459C35.1103 74.5829 34.978 74.4227 34.8011 74.1648L34.2915 73.4244L36.7765 71.7744ZM35.8522 73.3201L35.157 73.7821C35.2225 73.8701 35.2759 73.918 35.3193 73.9265C35.3614 73.9337 35.4328 73.9049 35.533 73.8373L35.7647 73.6837C35.8716 73.6135 35.9277 73.5603 35.935 73.5222C35.9424 73.4848 35.915 73.4179 35.8522 73.3201ZM36.7919 72.6966L36.2396 73.0641C36.2596 73.0904 36.2743 73.1114 36.2843 73.1271C36.3277 73.1901 36.3705 73.2197 36.4139 73.2164C36.4566 73.2131 36.5521 73.1619 36.6997 73.0648C36.7778 73.0129 36.8273 72.9703 36.848 72.9342C36.8693 72.8994 36.8767 72.8679 36.8693 72.8396C36.862 72.8108 36.8359 72.7642 36.7919 72.6966Z" fill="#030394"/>
<path d="M38.6484 77.7628C38.4841 77.9131 38.3472 77.9991 38.2363 78.0227C38.1248 78.0457 38.0193 78.0227 37.9205 77.9538C37.8216 77.8856 37.6834 77.7576 37.5057 77.5699L36.886 76.9155L39.0832 74.9058L39.6208 75.4729L38.8681 76.1614L38.9509 76.2493C39.1165 76.4239 39.2307 76.5657 39.2949 76.674C39.359 76.7816 39.3763 76.8906 39.3476 77.0002C39.3189 77.1098 39.2281 77.2332 39.0765 77.3717L38.6484 77.7628ZM38.1776 77.1354L38.4948 76.8453C38.587 76.7606 38.6344 76.7002 38.637 76.6641C38.639 76.6274 38.6016 76.5657 38.5222 76.4771L37.8009 77.1367C37.869 77.2082 37.9245 77.2483 37.9672 77.2568C38.0099 77.2647 38.0801 77.224 38.1776 77.1354ZM38.8534 78.9921L38.3158 78.4257L40.5123 76.416L41.0493 76.9825L38.8534 78.9921Z" fill="#030394"/>
<path d="M42.5961 81.2105C42.4571 81.3825 42.3343 81.4881 42.2281 81.5269C42.1219 81.5669 42.0144 81.5603 41.9062 81.5065C41.7973 81.4527 41.6417 81.3464 41.4374 81.1882L40.7241 80.6329L42.5867 78.3214L43.7948 79.2612L43.4716 79.6622L42.8819 79.2035L42.5667 79.5946L42.6622 79.6688C42.8525 79.8171 42.9874 79.9399 43.0675 80.037C43.1477 80.1354 43.1817 80.2411 43.1697 80.3533C43.157 80.4656 43.0876 80.6021 42.9587 80.7616L42.5961 81.2105ZM42.0344 80.6592L42.3035 80.3251C42.3817 80.2273 42.4191 80.161 42.4157 80.1243C42.4131 80.0882 42.365 80.0317 42.2742 79.9563L41.6624 80.715C41.7406 80.776 41.8013 80.8075 41.8447 80.8102C41.8888 80.8121 41.9516 80.7616 42.0344 80.6592Z" fill="#030394"/>
<path d="M45.9453 82.7325C45.787 82.9846 45.6694 83.1592 45.592 83.2569C45.5145 83.3541 45.4157 83.4276 45.2981 83.4755C45.1793 83.5241 45.051 83.5385 44.9121 83.5182C44.7739 83.4991 44.6323 83.446 44.4867 83.3587C44.3491 83.2747 44.2389 83.1788 44.1561 83.0686C44.074 82.9583 44.0266 82.8382 44.0146 82.7102C44.0032 82.5822 44.0232 82.4628 44.0747 82.3512C44.1261 82.2403 44.2329 82.0552 44.3946 81.7966L44.6624 81.3667C44.82 81.1147 44.9375 80.9394 45.0156 80.8423C45.0938 80.7445 45.1913 80.671 45.3101 80.6231C45.4284 80.5752 45.5572 80.5607 45.6955 80.5804C45.8337 80.5995 45.976 80.6533 46.1209 80.7406C46.2591 80.8246 46.3693 80.9204 46.4515 81.0307C46.5343 81.1409 46.581 81.2604 46.5931 81.389C46.6051 81.5164 46.5844 81.6365 46.533 81.748C46.4815 81.859 46.374 82.0434 46.2131 82.302L45.9453 82.7325ZM45.791 81.5026C45.8631 81.3851 45.9039 81.3063 45.9105 81.2663C45.9179 81.2256 45.9005 81.1934 45.8591 81.1685C45.8244 81.1475 45.789 81.1442 45.7536 81.1593C45.7189 81.1744 45.6608 81.2466 45.58 81.3759L44.8473 82.5488C44.7565 82.6945 44.7058 82.7883 44.6971 82.8297C44.6877 82.871 44.7058 82.9058 44.7505 82.9321C44.7959 82.9596 44.8373 82.9577 44.8747 82.9262C44.9121 82.8947 44.9769 82.8041 45.0697 82.6571L45.791 81.5026Z" fill="#030394"/>
<path d="M48.2077 81.9659L48.9249 82.2961C49.1192 82.3853 49.2615 82.4687 49.3517 82.5461C49.4418 82.6236 49.4999 82.7023 49.526 82.7831C49.5513 82.8631 49.5547 82.9472 49.5353 83.0351C49.5159 83.1244 49.4665 83.2517 49.3871 83.4184L49.2762 83.6507C49.1947 83.8214 49.1179 83.9369 49.0445 83.9986C48.971 84.0596 48.8768 84.0898 48.76 84.0872C48.6438 84.0839 48.5075 84.0472 48.3519 83.9756L48.1602 83.887L47.6487 84.9627L46.9368 84.6359L48.2077 81.9659ZM48.7025 82.7503L48.3793 83.4296C48.3987 83.4407 48.416 83.4479 48.4307 83.4552C48.4962 83.486 48.5489 83.4906 48.5897 83.4709C48.6297 83.4506 48.6738 83.3915 48.7206 83.2924L48.8247 83.0738C48.8681 82.9819 48.8822 82.9163 48.8661 82.875C48.8494 82.8349 48.7953 82.7929 48.7025 82.7503Z" fill="#030394"/>
<path d="M53.8777 87.0971L53.242 86.9331L53.5886 85.6348L52.8466 86.83L52.1794 86.6574L52.9428 83.805L53.5785 83.9704L53.2339 85.2568L54.0046 84.08L54.6404 84.2441L53.8777 87.0971Z" fill="#030394"/>
<path d="M57.6115 84.7607L57.5213 85.3448L57.0598 85.2752L56.6965 87.6058L55.9198 87.489L56.2825 85.1577L55.823 85.0895L55.9138 84.5067L57.6115 84.7607Z" fill="#030394"/>
<path d="M59.2531 86.3922L59.213 86.8983L58.2246 86.8228L58.2647 86.3168L59.2531 86.3922Z" fill="#030394"/>
<path d="M62.917 88.3881L62.3734 88.3986L62.3634 87.892L61.0938 87.9143L61.1038 88.4229L60.5622 88.4328L60.5415 87.3091L60.7018 87.3065C60.7819 87.0637 60.8454 86.7453 60.8914 86.3496C60.9382 85.9551 60.9569 85.5239 60.9482 85.0573L60.9469 84.9673L62.6906 84.9352L62.7353 87.2652L62.8949 87.2619L62.917 88.3881ZM61.946 87.2803L61.9126 85.5324L61.6795 85.537V85.5594C61.6902 86.1225 61.6394 86.6994 61.5246 87.2881L61.946 87.2803Z" fill="#030394"/>
<path d="M66.7061 87.4424L66.0556 87.5369L65.8559 86.2105L65.6502 87.596L64.969 87.6944L64.5303 84.7777L65.1801 84.6832L65.3784 85.9998L65.6168 84.6189L66.2666 84.5244L66.7061 87.4424Z" fill="#030394"/>
<path d="M67.7292 84.229L68.4953 84.0314C68.7023 83.9783 68.8666 83.9533 68.9854 83.9573C69.1056 83.9605 69.2011 83.9842 69.2733 84.0294C69.3454 84.0741 69.4028 84.1371 69.4456 84.2172C69.4877 84.2972 69.5331 84.4265 69.5805 84.605L69.6466 84.8531C69.6947 85.0356 69.7107 85.1734 69.6947 85.2666C69.6787 85.3605 69.6246 85.4425 69.5337 85.5134C69.4422 85.5843 69.314 85.6414 69.1477 85.6841L68.9434 85.7372L69.2492 86.8845L68.4886 87.0807L67.7292 84.229ZM68.6195 84.5217L68.8131 85.2469C68.8345 85.2424 68.8545 85.2378 68.8699 85.2345C68.9394 85.2168 68.9834 85.1866 69.0015 85.1459C69.0195 85.1058 69.0148 85.033 68.9868 84.9267L68.9247 84.693C68.8986 84.5959 68.8666 84.5368 68.8272 84.5151C68.7878 84.4941 68.7183 84.4961 68.6195 84.5217Z" fill="#030394"/>
<path d="M70.4907 83.4512L71.7222 83.0095L71.9279 83.5641L71.435 83.7407L71.63 84.2657L72.0915 84.101L72.2865 84.6274L71.8257 84.7928L72.0508 85.4019L72.5937 85.2082L72.7994 85.7628L71.5178 86.2209L70.4907 83.4512Z" fill="#030394"/>
<path d="M72.9238 82.5219L73.6344 82.1872L74.1854 83.3075C74.3176 83.2419 74.351 83.1362 74.2862 82.9931L74.0471 82.4681C73.9583 82.2745 73.9336 82.1268 73.973 82.027L74.6275 81.7172C74.5954 81.8124 74.6288 81.9607 74.7283 82.1629L74.9547 82.6177C75.0916 82.8921 75.0088 83.1244 74.7063 83.3141C75.0462 83.2012 75.2833 83.2845 75.4168 83.5668L75.6212 83.9914C75.718 84.1936 75.8196 84.3215 75.9251 84.3773L75.2699 84.6858C75.1617 84.655 75.0602 84.544 74.9667 84.3524L74.7143 83.8339C74.6816 83.7676 74.6355 83.7249 74.5747 83.7046C74.5139 83.6842 74.4512 83.6882 74.3857 83.7184L74.932 84.846L74.2214 85.1813L72.9238 82.5219Z" fill="#030394"/>
<path d="M77.0755 80.3008L77.3901 80.8036L76.9914 81.0438L78.2476 83.0528L77.5771 83.4571L76.3209 81.4481L75.9248 81.687L75.611 81.1843L77.0755 80.3008Z" fill="#030394"/>
<path d="M80.6372 79.8736C80.8201 80.1072 80.9444 80.2779 81.0105 80.3842C81.0753 80.4905 81.1093 80.6067 81.1127 80.7327C81.116 80.858 81.0846 80.9814 81.0165 81.1015C80.9477 81.2223 80.8469 81.3332 80.7113 81.435C80.5831 81.5321 80.4508 81.599 80.3173 81.6351C80.1837 81.6712 80.0528 81.6726 79.9273 81.6378C79.8004 81.6023 79.6942 81.5419 79.6074 81.4547C79.5205 81.3674 79.3816 81.2039 79.194 80.9637L78.8814 80.5634C78.6971 80.3284 78.5729 80.1577 78.5081 80.0521C78.4427 79.9458 78.4086 79.8296 78.4053 79.7042C78.4019 79.5782 78.434 79.4548 78.5021 79.3347C78.5702 79.2146 78.6717 79.103 78.806 79.0013C78.9342 78.9048 79.0664 78.8372 79.2007 78.8011C79.3342 78.765 79.4651 78.7637 79.59 78.7985C79.7169 78.8339 79.8244 78.8943 79.9106 78.9816C79.9974 79.0695 80.135 79.233 80.3233 79.4738L80.6372 79.8736ZM79.413 79.5756C79.3282 79.4666 79.2668 79.4023 79.2314 79.3806C79.1946 79.3603 79.1586 79.3636 79.1198 79.3938C79.0865 79.4174 79.0724 79.4489 79.0744 79.487C79.0764 79.525 79.1239 79.6038 79.2174 79.7233L80.0715 80.8141C80.1777 80.9499 80.2492 81.03 80.2845 81.0523C80.3206 81.0753 80.3593 81.0714 80.4014 81.0405C80.4435 81.0083 80.4568 80.9696 80.4395 80.9237C80.4235 80.8777 80.3607 80.7865 80.2538 80.6493L79.413 79.5756Z" fill="#030394"/>
<path d="M80.6731 77.5626L81.2434 77.0244C81.3984 76.8787 81.5286 76.779 81.6348 76.7238C81.7416 76.6693 81.8371 76.6451 81.9233 76.6497C82.0088 76.6556 82.0896 76.6831 82.1657 76.7324C82.2425 76.7822 82.3467 76.8735 82.4756 77.0067L82.6566 77.1918C82.7888 77.3283 82.8703 77.4405 82.903 77.5298C82.9344 77.6191 82.9284 77.7168 82.8843 77.8219C82.8402 77.9275 82.7561 78.0391 82.6318 78.1566L82.4782 78.2997L83.3144 79.1568L82.7467 79.6911L80.6731 77.5626ZM81.596 77.392L82.1236 77.9334C82.1397 77.9196 82.1543 77.9059 82.1664 77.8947C82.2185 77.8461 82.2418 77.7989 82.2378 77.7549C82.2331 77.7116 82.1931 77.6499 82.1163 77.5711L81.9453 77.3959C81.8752 77.3237 81.8178 77.2869 81.7717 77.2869C81.7289 77.2876 81.6695 77.3224 81.596 77.392Z" fill="#030394"/>
<path d="M85.3493 75.1664C85.581 75.3574 85.7393 75.4978 85.8261 75.5884C85.9129 75.6777 85.9717 75.784 86.0038 75.9061C86.0345 76.0281 86.0292 76.1548 85.9898 76.2867C85.9497 76.4187 85.8749 76.5479 85.766 76.6766C85.6618 76.7987 85.5483 76.8912 85.4248 76.9555C85.3012 77.0192 85.175 77.0474 85.0448 77.0402C84.9139 77.033 84.797 76.9962 84.6928 76.9293C84.588 76.8617 84.4177 76.7311 84.1813 76.5361L83.7879 76.2119C83.5568 76.0216 83.3979 75.8818 83.3111 75.7912C83.2249 75.7006 83.1655 75.595 83.1348 75.4735C83.1034 75.3508 83.1074 75.2235 83.1481 75.0922C83.1875 74.9609 83.263 74.831 83.3725 74.7017C83.476 74.5796 83.5902 74.4871 83.7138 74.4234C83.8367 74.3597 83.9636 74.3315 84.0938 74.3381C84.2247 74.346 84.3422 74.3827 84.4464 74.4497C84.5499 74.5166 84.7215 74.6472 84.9573 74.8428L85.3493 75.1664ZM84.0898 75.1362C83.9836 75.0476 83.9095 74.997 83.8701 74.9846C83.8307 74.9714 83.7953 74.9833 83.7632 75.02C83.7378 75.0509 83.7291 75.0856 83.7392 75.1211C83.7498 75.1578 83.814 75.2241 83.9315 75.3219L85.0034 76.2073C85.1369 76.3176 85.2238 76.3799 85.2645 76.3944C85.3059 76.4088 85.342 76.397 85.376 76.3576C85.4101 76.3169 85.4141 76.2769 85.3887 76.2355C85.3627 76.1948 85.2812 76.1187 85.1469 76.0065L84.0898 75.1362Z" fill="#030394"/>
<path d="M84.9313 72.8357L85.3634 72.1925C85.4989 71.9897 85.6191 71.8466 85.7213 71.7626C85.8228 71.678 85.945 71.6353 86.086 71.6353C86.2262 71.6333 86.4052 71.7029 86.6202 71.8434C86.7672 71.9385 86.854 72.0265 86.8814 72.1092C86.9081 72.1925 86.8927 72.3107 86.8339 72.4642C86.9675 72.3376 87.0924 72.2732 87.2066 72.2713C87.3221 72.2687 87.4604 72.3212 87.6233 72.4268L87.8551 72.5771C88.024 72.6874 88.1369 72.7872 88.193 72.8784C88.2484 72.9703 88.2631 73.0668 88.2371 73.1705C88.211 73.2728 88.1102 73.4546 87.9359 73.7139L87.4343 74.4595L84.9313 72.8357ZM85.7928 72.4688L86.3491 72.8298C86.3664 72.8016 86.3811 72.7799 86.3912 72.7642C86.4332 72.7012 86.4453 72.6506 86.4252 72.6126C86.4059 72.5752 86.3224 72.5082 86.1728 72.4117C86.0946 72.3605 86.0352 72.3317 85.9938 72.3264C85.9531 72.3198 85.9203 72.3251 85.8963 72.3428C85.8736 72.3612 85.8389 72.4025 85.7928 72.4688ZM86.7391 73.0825L87.4397 73.536C87.4978 73.4435 87.5225 73.3765 87.5125 73.3339C87.5038 73.2925 87.4497 73.2387 87.3488 73.1737L87.1144 73.0215C87.0076 72.9525 86.9348 72.9217 86.8967 72.9289C86.8593 72.9375 86.8066 72.9886 86.7391 73.0825Z" fill="#030394"/>
<path d="M103.895 51.6698H19.2344V69.4248H103.895V51.6698Z" fill="url(#paint5_linear_562_1455)"/>
<path d="M61.721 36.582L62.8302 38.7893L65.3072 39.1437L63.5154 40.8613L63.9375 43.2884L61.721 42.1418L59.5038 43.2884L59.9272 40.8613L58.1327 39.1437L60.613 38.7893L61.721 36.582Z" fill="white"/>
<path d="M52.6337 38.7788L53.3797 40.2621L55.0459 40.501L53.8411 41.6568L54.1243 43.2885L52.6337 42.5179L51.1424 43.2885L51.4269 41.6568L50.2222 40.501L51.8877 40.2621L52.6337 38.7788Z" fill="white"/>
<path d="M70.0227 38.7788L70.768 40.2621L72.4356 40.501L71.2288 41.6568L71.514 43.2885L70.0227 42.5179L68.5321 43.2885L68.8173 41.6568L67.6099 40.501L69.2781 40.2621L70.0227 38.7788Z" fill="white"/>
<path d="M76.3058 42.9629L76.8989 44.1443L78.2252 44.334L77.2655 45.2528L77.4912 46.5517L76.3058 45.9374L75.1198 46.5517L75.3455 45.2528L74.3865 44.334L75.7121 44.1443L76.3058 42.9629Z" fill="white"/>
<path d="M47.0853 42.9629L47.679 44.1443L49.0053 44.334L48.0443 45.2528L48.2721 46.5517L47.0853 45.9374L45.8999 46.5517L46.127 45.2528L45.168 44.334L46.4936 44.1443L47.0853 42.9629Z" fill="white"/>
<path d="M63.785 54.7001C63.785 54.7001 59.2712 54.7014 59.2465 54.7047L52.7631 54.7198H52.327H40.069C37.8625 54.7198 35.6353 56.2582 35.6353 59.6908C35.6353 63.126 37.8451 64.6638 40.0336 64.6638H52.327H52.7631L59.7353 64.6481L63.7577 64.6376C64.0809 64.6238 64.3654 64.3521 64.3654 64.0311V55.2934C64.3667 54.9724 64.1076 54.7139 63.785 54.7001Z" fill="url(#paint6_linear_562_1455)"/>
<path d="M71.7863 56.2103C71.2907 55.871 70.7017 55.7016 70.0192 55.7016C69.4375 55.7016 68.9393 55.8086 68.5266 56.0232C68.1125 56.2379 67.7713 56.5266 67.5035 56.8876C67.2357 57.2499 67.038 57.6634 66.9104 58.1274C66.7829 58.5928 66.7188 59.0745 66.7188 59.5746C66.7188 60.1207 66.7829 60.6366 66.9104 61.1236C67.0373 61.6099 67.235 62.0352 67.5035 62.3962C67.7713 62.7585 68.1145 63.046 68.5326 63.2606C68.952 63.4746 69.4515 63.5829 70.0339 63.5829C70.4606 63.5829 70.84 63.5133 71.1725 63.3741C71.5038 63.2363 71.791 63.044 72.0314 62.7979C72.2725 62.5531 72.4608 62.2597 72.5977 61.9204C72.7339 61.5804 72.8154 61.2142 72.8428 60.821H74.1384C74.0115 62.0267 73.5888 62.9652 72.8708 63.636C72.1516 64.3061 71.1699 64.6409 69.925 64.6409C69.169 64.6409 68.5106 64.5135 67.9469 64.2589C67.3826 64.0036 66.9151 63.6537 66.5431 63.2068C66.1691 62.7592 65.8886 62.2328 65.7037 61.6257C65.5173 61.0173 65.4238 60.3642 65.4238 59.6685C65.4238 58.9708 65.5233 58.3165 65.7237 57.7048C65.9234 57.0924 66.2166 56.5581 66.6039 56.1027C66.9899 55.6478 67.4707 55.2875 68.0491 55.0243C68.6254 54.7605 69.2872 54.6285 70.0339 54.6285C70.5428 54.6285 71.0243 54.6955 71.4797 54.83C71.9339 54.9639 72.3379 55.1602 72.6925 55.4194C73.0471 55.6787 73.343 56.0022 73.5794 56.3908C73.8158 56.78 73.9694 57.2289 74.0429 57.7382H72.748C72.6024 57.0602 72.2811 56.5509 71.7863 56.2103Z" fill="url(#paint7_linear_562_1455)"/>
<path d="M76.757 54.8575V64.4275H75.462V54.8575H76.757Z" fill="url(#paint8_linear_562_1455)"/>
<path d="M78.3465 57.7598C78.5415 57.1566 78.8347 56.6223 79.2254 56.1577C79.6161 55.6936 80.1023 55.3228 80.6846 55.0458C81.2663 54.7689 81.9448 54.6304 82.7168 54.6304C83.4902 54.6304 84.1673 54.7689 84.749 55.0458C85.3307 55.3228 85.8176 55.6936 86.2096 56.1577C86.5996 56.6223 86.8928 57.1566 87.0878 57.7598C87.2841 58.3629 87.381 58.9904 87.381 59.6428C87.381 60.2938 87.2835 60.9226 87.0878 61.5251C86.8928 62.1289 86.5996 62.6625 86.2096 63.1272C85.8176 63.5919 85.3307 63.9601 84.749 64.2331C84.1673 64.5055 83.4902 64.642 82.7168 64.642C81.9448 64.642 81.2663 64.5055 80.6846 64.2331C80.1023 63.9601 79.6161 63.5919 79.2254 63.1272C78.834 62.6625 78.5415 62.1289 78.3465 61.5251C78.1502 60.9226 78.0533 60.2938 78.0533 59.6428C78.0533 58.9904 78.1502 58.3629 78.3465 57.7598ZM79.5399 61.0696C79.6655 61.5396 79.8658 61.9609 80.139 62.337C80.4108 62.7124 80.7621 63.0143 81.1888 63.2414C81.6169 63.4698 82.1251 63.584 82.7162 63.584C83.3072 63.584 83.8167 63.4692 84.2442 63.2414C84.6709 63.0143 85.0215 62.7124 85.2933 62.337C85.5665 61.9616 85.7661 61.5396 85.8937 61.0696C86.0206 60.601 86.0854 60.1252 86.0854 59.6428C86.0854 59.1604 86.0199 58.6839 85.8937 58.2152C85.7661 57.7453 85.5665 57.3233 85.2933 56.9485C85.0215 56.5731 84.6702 56.2712 84.2442 56.0435C83.8167 55.8164 83.3072 55.7022 82.7162 55.7022C82.1251 55.7022 81.6169 55.8164 81.1888 56.0435C80.7614 56.2719 80.4108 56.5731 80.139 56.9485C79.8658 57.3233 79.6655 57.7453 79.5399 58.2152C79.4124 58.6839 79.3483 59.1597 79.3483 59.6428C79.3483 60.1252 79.4124 60.601 79.5399 61.0696Z" fill="url(#paint9_linear_562_1455)"/>
<path d="M43.3386 63.382L43.2451 62.0588H43.2251C43.1002 62.3168 42.9466 62.5393 42.7636 62.7257C42.5813 62.912 42.3796 63.0656 42.1592 63.1838C41.9382 63.3026 41.7011 63.3892 41.45 63.443C41.1975 63.4975 40.9364 63.5244 40.6686 63.5244C40.0889 63.5244 39.5801 63.4214 39.142 63.2133C38.7032 63.0072 38.3392 62.7309 38.0494 62.3844C37.7595 62.0391 37.5425 61.6381 37.3969 61.1846C37.2527 60.7304 37.1792 60.2513 37.1792 59.7505C37.1792 59.2484 37.252 58.7706 37.3969 58.3151C37.5418 57.8609 37.7595 57.4586 38.0494 57.1094C38.3392 56.7609 38.7032 56.482 39.142 56.2759C39.5801 56.0685 40.0889 55.9655 40.6686 55.9655C41.0553 55.9655 41.4206 56.016 41.7659 56.1177C42.1105 56.2188 42.4177 56.3717 42.6868 56.5745C42.9559 56.7786 43.1843 57.03 43.3693 57.3287C43.5563 57.6266 43.6832 57.9764 43.7527 58.3755H43.0494C43.0281 58.1661 42.9573 57.9541 42.8371 57.7402C42.7162 57.5269 42.5546 57.3319 42.3502 57.1554C42.1465 56.9782 41.9034 56.8344 41.621 56.7222C41.3371 56.6106 41.0199 56.5548 40.6686 56.5548C40.1784 56.5548 39.7577 56.6467 39.4051 56.8298C39.0531 57.013 38.7653 57.2551 38.5409 57.5571C38.3165 57.859 38.1509 58.1996 38.0447 58.5796C37.9372 58.959 37.8838 59.3495 37.8838 59.7499C37.8838 60.143 37.9372 60.5309 38.0447 60.9135C38.1509 61.2962 38.3165 61.6394 38.5409 61.94C38.7653 62.2426 39.0531 62.4854 39.4051 62.6679C39.7577 62.8523 40.1784 62.9442 40.6686 62.9442C41.0753 62.9442 41.4386 62.8786 41.7605 62.746C42.0811 62.6134 42.3522 62.429 42.5726 62.1914C42.7937 61.9545 42.9586 61.6729 43.0695 61.3467C43.1803 61.0212 43.2318 60.6654 43.2251 60.2795H40.7094V59.6895H43.8462V63.382H43.3386Z" fill="white"/>
<path d="M45.4812 56.1184V63.3814H44.8293V56.1184H45.4812Z" fill="white"/>
<path d="M49.8133 58.2035C50.1272 58.3532 50.391 58.5527 50.6054 58.8041C50.8184 59.0555 50.9807 59.3475 51.0915 59.6836C51.2017 60.0203 51.2565 60.3773 51.2565 60.7567C51.2565 61.1373 51.2011 61.495 51.0915 61.8311C50.9807 62.1671 50.8184 62.4592 50.6054 62.7099C50.391 62.9613 50.1272 63.1602 49.8133 63.3059C49.4988 63.4522 49.1381 63.5244 48.7308 63.5244C48.3234 63.5244 47.9634 63.4522 47.6489 63.3059C47.335 63.1595 47.0712 62.9613 46.8575 62.7099C46.6425 62.4592 46.4808 62.1671 46.3706 61.8311C46.2598 61.495 46.2057 61.1373 46.2057 60.7567C46.2057 60.3773 46.2605 60.0203 46.3706 59.6836C46.4808 59.3475 46.6425 59.0555 46.8575 58.8041C47.0705 58.5527 47.335 58.3525 47.6489 58.2035C47.9634 58.0546 48.3234 57.9797 48.7308 57.9797C49.1381 57.9797 49.4988 58.0546 49.8133 58.2035ZM47.914 58.7122C47.6796 58.8408 47.4839 59.0108 47.3283 59.2209C47.1734 59.4302 47.0552 59.6698 46.9764 59.9376C46.8969 60.206 46.8575 60.4784 46.8575 60.756C46.8575 61.035 46.8969 61.3073 46.9764 61.5758C47.0552 61.8436 47.1727 62.0825 47.3283 62.2925C47.4833 62.5032 47.6789 62.6732 47.914 62.8011C48.1477 62.9298 48.4209 62.9948 48.7308 62.9948C49.042 62.9948 49.3138 62.9298 49.5495 62.8011C49.7839 62.6732 49.9783 62.5032 50.1339 62.2925C50.2888 62.0831 50.4064 61.8436 50.4858 61.5758C50.5653 61.3073 50.6054 61.035 50.6054 60.756C50.6054 60.4784 50.5653 60.206 50.4858 59.9376C50.4057 59.6698 50.2888 59.4302 50.1339 59.2209C49.9783 59.0108 49.7839 58.8408 49.5495 58.7122C49.3144 58.5836 49.042 58.5186 48.7308 58.5186C48.4216 58.5186 48.1477 58.5836 47.914 58.7122Z" fill="white"/>
<path d="M52.6234 56.1184V59.1297H52.6434C52.7122 58.94 52.811 58.7739 52.9386 58.6308C53.0661 58.4878 53.2131 58.3683 53.378 58.2699C53.5436 58.1721 53.7239 58.0986 53.9163 58.0506C54.11 58.0034 54.303 57.9798 54.496 57.9798C54.9033 57.9798 55.2566 58.0546 55.5571 58.2036C55.8563 58.3532 56.1068 58.5547 56.3071 58.8094C56.5068 59.064 56.6551 59.3587 56.7519 59.6941C56.8487 60.0301 56.8968 60.3852 56.8968 60.7567C56.8968 61.1301 56.8487 61.4846 56.7519 61.8213C56.6551 62.156 56.5068 62.4513 56.3071 62.706C56.1068 62.96 55.8563 63.1595 55.5571 63.3059C55.2566 63.4522 54.9033 63.5244 54.496 63.5244C54.0619 63.5244 53.6732 63.426 53.3319 63.2297C52.99 63.0322 52.7436 62.7513 52.5913 62.385H52.5706V63.3827H51.9702V56.1184H52.6234ZM56.1468 59.9481C56.0814 59.6803 55.9779 59.4414 55.8363 59.2307C55.6947 59.0214 55.5137 58.8494 55.2927 58.7175C55.0716 58.5849 54.8065 58.5186 54.496 58.5186C54.1507 58.5186 53.8595 58.5842 53.6211 58.7175C53.3833 58.8494 53.1897 59.0214 53.0414 59.2307C52.8932 59.4408 52.7863 59.6803 52.7209 59.9481C52.6554 60.2159 52.6227 60.4856 52.6227 60.756C52.6227 61.0278 52.6554 61.2969 52.7209 61.5653C52.7863 61.8324 52.8932 62.072 53.0414 62.2827C53.1903 62.4927 53.3833 62.664 53.6211 62.7959C53.8588 62.9285 54.1507 62.9948 54.496 62.9948C54.8065 62.9948 55.0716 62.9285 55.2927 62.7959C55.5137 62.664 55.6947 62.4927 55.8363 62.2827C55.9779 62.0726 56.0814 61.8324 56.1468 61.5653C56.213 61.2969 56.2457 61.0278 56.2457 60.756C56.2457 60.4856 56.213 60.2159 56.1468 59.9481Z" fill="white"/>
<path d="M57.7879 58.9466C57.8988 58.7228 58.049 58.5403 58.238 58.3972C58.4284 58.2542 58.6507 58.1498 58.9059 58.0815C59.161 58.0139 59.4435 57.9805 59.7547 57.9805C59.9891 57.9805 60.2242 58.0028 60.4586 58.0468C60.693 58.0907 60.904 58.1734 61.0897 58.2968C61.276 58.4189 61.4283 58.5902 61.5458 58.8101C61.6627 59.0299 61.7221 59.3168 61.7221 59.6699V62.4573C61.7221 62.7152 61.849 62.8439 62.1041 62.8439C62.1802 62.8439 62.249 62.8301 62.3125 62.8025V63.3414C62.2363 63.3552 62.1682 63.365 62.1101 63.3722C62.0507 63.3788 61.9772 63.3827 61.8877 63.3827C61.7221 63.3827 61.5892 63.3611 61.489 63.3164C61.3889 63.2731 61.3114 63.2101 61.256 63.1287C61.2005 63.0473 61.1638 62.9509 61.1464 62.8386C61.1297 62.727 61.1211 62.6037 61.1211 62.4671H61.1004C60.9828 62.6378 60.8639 62.7887 60.7437 62.92C60.6222 63.0526 60.4873 63.1629 60.3397 63.2515C60.1908 63.3394 60.0225 63.407 59.8328 63.4549C59.6425 63.5015 59.4167 63.5258 59.1543 63.5258C58.9059 63.5258 58.6734 63.4969 58.4557 63.4398C58.238 63.3814 58.0484 63.2902 57.8867 63.1642C57.7245 63.0395 57.5969 62.88 57.5034 62.6857C57.4106 62.4927 57.3632 62.2643 57.3632 61.9992C57.3632 61.6329 57.446 61.3468 57.6116 61.1394C57.7779 60.9326 57.9969 60.7751 58.2687 60.6662C58.5412 60.5585 58.8491 60.4811 59.1897 60.4371C59.5316 60.3938 59.8776 60.3505 60.2302 60.3104C60.3684 60.2967 60.4886 60.2802 60.5915 60.2592C60.695 60.2389 60.7825 60.2035 60.8506 60.1523C60.9207 60.1024 60.9741 60.0322 61.0115 59.9449C61.0489 59.8563 61.069 59.7407 61.069 59.599C61.069 59.3817 61.0322 59.2045 60.9594 59.0654C60.8873 58.9262 60.7871 58.816 60.6596 58.7339C60.532 58.6526 60.3838 58.5968 60.2148 58.5666C60.0452 58.5357 59.8649 58.5206 59.6719 58.5206C59.2571 58.5206 58.9192 58.6171 58.6568 58.8107C58.395 59.0037 58.2567 59.3135 58.2434 59.7414H57.5909C57.6123 59.4356 57.6777 59.1704 57.7879 58.9466ZM61.0483 60.5126C61.0075 60.5874 60.9281 60.6412 60.8105 60.6754C60.693 60.7101 60.5895 60.7331 60.5006 60.7462C60.2248 60.7942 59.9397 60.8362 59.6458 60.8736C59.3526 60.911 59.0855 60.9668 58.8444 61.0409C58.6027 61.1158 58.4043 61.2221 58.2487 61.3612C58.0938 61.501 58.0156 61.6992 58.0156 61.9565C58.0156 62.1193 58.0484 62.263 58.1131 62.389C58.1786 62.5137 58.2667 62.622 58.3776 62.7139C58.4871 62.8052 58.6153 62.8747 58.7603 62.9226C58.9052 62.9699 59.0534 62.9935 59.2057 62.9935C59.4541 62.9935 59.6926 62.9555 59.9196 62.8813C60.1474 62.8071 60.3457 62.6988 60.5147 62.5557C60.6836 62.4127 60.8185 62.2407 60.918 62.0372C61.0182 61.8331 61.0683 61.6028 61.0683 61.3448V60.5106H61.0483V60.5126Z" fill="white"/>
<path d="M63.429 56.1184V63.3814H62.7772V56.1184H63.429Z" fill="white"/>
<path d="M37.4727 66.5927C37.4727 66.2665 37.5621 66.0112 37.7418 65.8274C37.9214 65.643 38.1532 65.5505 38.437 65.5505C38.6227 65.5505 38.7903 65.5931 38.9406 65.6804C39.0902 65.7671 39.203 65.8872 39.2818 66.0427C39.3606 66.1976 39.3994 66.3735 39.3994 66.5704C39.3994 66.7693 39.358 66.9471 39.2751 67.104C39.1923 67.2609 39.0761 67.381 38.9252 67.4617C38.7736 67.5424 38.6106 67.5825 38.4357 67.5825C38.246 67.5825 38.0764 67.5385 37.9268 67.4486C37.7779 67.3593 37.6643 67.2379 37.5875 67.0837C37.5114 66.9288 37.4727 66.7647 37.4727 66.5927ZM37.7478 66.5973C37.7478 66.8336 37.8133 67.0193 37.9435 67.1559C38.0744 67.2924 38.238 67.36 38.4343 67.36C38.6354 67.36 38.8003 67.2917 38.9299 67.1545C39.0594 67.0167 39.1242 66.8218 39.1242 66.5691C39.1242 66.409 39.0968 66.2698 39.0407 66.1497C38.9853 66.0303 38.9045 65.9384 38.7976 65.8734C38.6908 65.8064 38.5712 65.7743 38.4383 65.7743C38.25 65.7743 38.0877 65.8379 37.9515 65.964C37.8159 66.0906 37.7478 66.302 37.7478 66.5973Z" fill="#F04200"/>
<path d="M40.5608 65.5859H40.8085V66.2646C40.86 66.2075 40.9161 66.1655 40.9775 66.1373C41.0389 66.109 41.1051 66.0952 41.1752 66.0952C41.3481 66.0952 41.4857 66.1655 41.5872 66.3059C41.6887 66.447 41.7395 66.6236 41.7395 66.8369C41.7395 67.0594 41.6847 67.2392 41.5752 67.3764C41.4664 67.5129 41.3308 67.5818 41.1692 67.5818C41.1157 67.5818 41.0616 67.574 41.0069 67.5582C40.9521 67.5425 40.886 67.4985 40.8092 67.4269V68.0957H40.5614V67.4269C40.512 67.4781 40.4573 67.5175 40.3972 67.5438C40.3371 67.5694 40.2716 67.5825 40.2022 67.5825C40.0492 67.5825 39.9157 67.5169 39.8008 67.3862C39.6859 67.2556 39.6292 67.0686 39.6292 66.8251C39.6292 66.6183 39.6812 66.4457 39.7841 66.3059C39.8876 66.1655 40.0272 66.0966 40.2015 66.0966C40.2749 66.0966 40.3411 66.1103 40.4005 66.1386C40.4599 66.1668 40.5134 66.2088 40.5601 66.2659V65.5859H40.5608ZM39.8803 66.8166C39.8803 67.0174 39.915 67.1618 39.9844 67.2504C40.0532 67.339 40.1394 67.383 40.2422 67.383C40.3491 67.383 40.4292 67.339 40.4826 67.251C40.5361 67.1631 40.5621 67.0312 40.5621 66.8553C40.5621 66.6676 40.5341 66.5271 40.4786 66.4333C40.4225 66.3401 40.3377 66.2928 40.2255 66.2928C40.124 66.2928 40.0412 66.3381 39.9764 66.43C39.9123 66.5219 39.8803 66.6505 39.8803 66.8166ZM40.8072 66.8428C40.8072 67.0574 40.8366 67.2018 40.898 67.2747C40.9581 67.3488 41.0343 67.3856 41.1244 67.3856C41.2253 67.3856 41.3108 67.3403 41.3822 67.2497C41.453 67.1592 41.4884 67.018 41.4884 66.8271C41.4884 66.6472 41.4557 66.5127 41.3909 66.4241C41.3248 66.3355 41.2413 66.2908 41.1384 66.2908C41.0283 66.2908 40.9454 66.3368 40.8907 66.4293C40.8346 66.5212 40.8072 66.6597 40.8072 66.8428Z" fill="#F04200"/>
<path d="M42.0266 66.1267H42.2744V67.211L42.9602 66.1267H43.2267V67.549H42.9789V66.4706L42.2931 67.549H42.0266V66.1267Z" fill="#F04200"/>
<path d="M43.6033 66.1267H43.8504V67.3508H44.5349V66.1267H44.7827V67.3508H44.9416V67.952H44.7379V67.549H43.6033V66.1267Z" fill="#F04200"/>
<path d="M45.2109 66.1267H45.458V67.211L46.1438 66.1267H46.4103V67.549H46.1625V66.4706L45.4767 67.549H45.2102V66.1267H45.2109Z" fill="#F04200"/>
<path d="M47.7352 67.3738C47.6437 67.4499 47.5556 67.5037 47.4707 67.5346C47.3859 67.5661 47.2951 67.5812 47.1976 67.5812C47.0373 67.5812 46.9144 67.5431 46.8276 67.4663C46.7421 67.3908 46.6987 67.2924 46.6987 67.1743C46.6987 67.1047 46.7148 67.041 46.7475 66.9833C46.7795 66.9255 46.8223 66.8796 46.875 66.8448C46.9278 66.81 46.9872 66.7837 47.0534 66.766C47.1021 66.7529 47.1756 66.7411 47.2731 66.7299C47.4727 66.7063 47.6203 66.6787 47.7145 66.6466C47.7152 66.6131 47.7152 66.5921 47.7152 66.5829C47.7152 66.4851 47.6918 66.4155 47.6457 66.3755C47.5823 66.321 47.4888 66.2935 47.3646 66.2935C47.2477 66.2935 47.1622 66.3131 47.1068 66.3532C47.0507 66.3932 47.0099 66.4634 46.9832 66.5639L46.7415 66.5317C46.7635 66.4313 46.7996 66.3499 46.8503 66.2869C46.9004 66.2252 46.9739 66.1773 47.0687 66.1438C47.1642 66.1103 47.2744 66.0939 47.4 66.0939C47.5248 66.0939 47.6257 66.1077 47.7032 66.1366C47.7813 66.1648 47.8387 66.2009 47.8755 66.2442C47.9115 66.2869 47.9369 66.342 47.9523 66.4083C47.9603 66.4497 47.9649 66.5232 47.9649 66.6308V66.9518C47.9649 67.1762 47.9696 67.318 47.9803 67.3771C47.991 67.4361 48.0117 67.4932 48.0431 67.5477H47.7846C47.7592 67.4991 47.7426 67.4407 47.7352 67.3738ZM47.7145 66.8356C47.625 66.871 47.4901 66.9019 47.3105 66.9262C47.209 66.9406 47.1368 66.9563 47.0948 66.9741C47.0527 66.9918 47.02 67.018 46.9973 67.0528C46.9739 67.087 46.9632 67.1257 46.9632 67.1677C46.9632 67.232 46.9879 67.2852 47.038 67.3278C47.0874 67.3705 47.1609 67.3928 47.257 67.3928C47.3525 67.3928 47.4374 67.3725 47.5115 67.3311C47.5856 67.2904 47.6404 67.2353 47.6751 67.1644C47.7018 67.1106 47.7152 67.0299 47.7152 66.9242V66.8356H47.7145Z" fill="#F04200"/>
<path d="M48.4691 66.1267H49.6178V67.549H49.372V66.3262H48.7162V67.0344C48.7162 67.2005 48.7109 67.3094 48.6995 67.3613C48.6888 67.4144 48.6581 67.4604 48.6087 67.4998C48.5593 67.5385 48.4878 67.5582 48.3943 67.5582C48.3369 67.5582 48.2701 67.5549 48.1953 67.5477V67.3468H48.3035C48.3549 67.3468 48.3917 67.3409 48.4137 67.3311C48.4357 67.3206 48.4498 67.3048 48.4571 67.2825C48.4644 67.2609 48.4685 67.1873 48.4685 67.0646V66.1267H48.4691Z" fill="#F04200"/>
<path d="M49.9865 66.1267H50.2336V66.6833H50.5468C50.7512 66.6833 50.9081 66.722 51.019 66.7988C51.1298 66.8756 51.1846 66.9819 51.1846 67.1184C51.1846 67.2366 51.1385 67.3383 51.0464 67.423C50.9542 67.5076 50.8073 67.549 50.6043 67.549H49.9858V66.1267H49.9865ZM50.2336 67.3508H50.4934C50.6497 67.3508 50.7619 67.3317 50.8286 67.2943C50.8954 67.2563 50.9288 67.1985 50.9288 67.1184C50.9288 67.0567 50.9041 67.0016 50.854 66.9537C50.8053 66.9071 50.6957 66.8821 50.5261 66.8821H50.2329V67.3508H50.2336Z" fill="#F04200"/>
<path d="M51.4578 66.1267H51.7055V66.7187H52.3907V66.1267H52.6385V67.549H52.3907V66.9182H51.7055V67.549H51.4578V66.1267Z" fill="#F04200"/>
<path d="M53.0164 66.1267H53.2635V66.6833H53.5767C53.781 66.6833 53.938 66.722 54.0482 66.7988C54.159 66.8756 54.2138 66.9819 54.2138 67.1184C54.2138 67.2366 54.1677 67.3383 54.0755 67.423C53.9834 67.5076 53.8358 67.549 53.6334 67.549H53.0164V66.1267ZM53.2635 67.3508H53.5232C53.6795 67.3508 53.7917 67.3317 53.8585 67.2943C53.9259 67.2563 53.9587 67.1985 53.9587 67.1184C53.9587 67.0567 53.934 67.0016 53.8845 66.9537C53.8351 66.9071 53.7256 66.8821 53.556 66.8821H53.2635V67.3508ZM54.4001 66.1267H54.6479V67.549H54.4001V66.1267Z" fill="#F04200"/>
<path d="M55.0333 66.1268H55.2804V67.211L55.9663 66.1268H56.2328V67.549H55.985V66.4707L55.2998 67.549H55.0333V66.1268ZM55.8922 65.5886H56.0611C56.0471 65.7001 56.0057 65.7855 55.9356 65.8458C55.8654 65.9056 55.7726 65.9358 55.6564 65.9358C55.5389 65.9358 55.4454 65.9056 55.3753 65.8465C55.3051 65.7868 55.2631 65.7008 55.249 65.5886H55.418C55.4307 65.6496 55.4561 65.6942 55.4941 65.7244C55.5322 65.7546 55.5829 65.7691 55.6471 65.7691C55.7212 65.7691 55.7773 65.7546 55.8147 65.7257C55.8541 65.6962 55.8795 65.6509 55.8922 65.5886Z" fill="#F04200"/>
<path d="M57.3889 66.1267H58.5402V67.549H58.2931V66.3262H57.6359V67.549H57.3882V66.1267H57.3889Z" fill="#F04200"/>
<path d="M58.8191 66.8382C58.8191 66.5743 58.8939 66.3794 59.0442 66.2521C59.1697 66.147 59.3226 66.0945 59.503 66.0945C59.704 66.0945 59.8676 66.1589 59.9951 66.2868C60.122 66.4142 60.1861 66.5914 60.1861 66.8185C60.1861 67.0009 60.1588 67.1453 60.102 67.2497C60.0452 67.3547 59.9631 67.4361 59.8562 67.4938C59.748 67.5522 59.6312 67.5811 59.5036 67.5811C59.2999 67.5811 59.1343 67.5175 59.0081 67.3895C58.8825 67.2628 58.8191 67.0777 58.8191 66.8382ZM59.0735 66.8382C59.0735 67.02 59.1149 67.1565 59.1958 67.2464C59.2772 67.3376 59.3801 67.3829 59.5036 67.3829C59.6265 67.3829 59.7287 67.3376 59.8102 67.2464C59.8916 67.1545 59.9324 67.016 59.9324 66.8296C59.9324 66.6531 59.8916 66.5205 59.8095 66.4299C59.7273 66.3394 59.6258 66.2941 59.503 66.2941C59.3794 66.2941 59.2766 66.3394 59.1951 66.4293C59.1143 66.5198 59.0735 66.6557 59.0735 66.8382Z" fill="#F04200"/>
<path d="M60.4768 68.0944V66.1267H60.7019V66.3118C60.7553 66.2389 60.8147 66.1845 60.8822 66.149C60.949 66.1123 61.0304 66.0945 61.1253 66.0945C61.2508 66.0945 61.3597 66.126 61.4552 66.1884C61.5507 66.2514 61.6221 66.3387 61.6702 66.4529C61.719 66.5671 61.7437 66.6911 61.7437 66.827C61.7437 66.9727 61.7163 67.1033 61.6629 67.2208C61.6095 67.337 61.532 67.4262 61.4291 67.4879C61.327 67.5503 61.2194 67.5811 61.1066 67.5811C61.0238 67.5811 60.9503 67.5647 60.8849 67.5306C60.8187 67.4965 60.7653 67.4538 60.7232 67.402V68.095H60.4768V68.0944ZM60.7005 66.846C60.7005 67.0292 60.7386 67.1644 60.8147 67.2523C60.8902 67.3396 60.983 67.3829 61.0912 67.3829C61.2007 67.3829 61.2949 67.3376 61.373 67.2464C61.4518 67.1565 61.4912 67.0154 61.4912 66.8257C61.4912 66.6445 61.4525 66.5087 61.3764 66.4181C61.2996 66.3282 61.2081 66.2836 61.1019 66.2836C60.9964 66.2836 60.9036 66.3308 60.8227 66.4273C60.7413 66.5238 60.7005 66.6629 60.7005 66.846Z" fill="#F04200"/>
<path d="M61.8464 66.1267H63.0318V66.3262H62.5617V67.549H62.3166V66.3262H61.8464V66.1267Z" fill="#F04200"/>
<path d="M64.1892 67.3738C64.0978 67.4499 64.0089 67.5037 63.9248 67.5346C63.84 67.5661 63.7491 67.5812 63.6523 67.5812C63.492 67.5812 63.3685 67.5431 63.2817 67.4663C63.1962 67.3908 63.1534 67.2924 63.1534 67.1743C63.1534 67.1047 63.1695 67.041 63.2022 66.9833C63.2349 66.9255 63.277 66.8796 63.3291 66.8448C63.3825 66.81 63.4419 66.7837 63.5081 66.766C63.5561 66.7529 63.6296 66.7411 63.7278 66.7299C63.9268 66.7063 64.0744 66.6787 64.1685 66.6466C64.1699 66.6131 64.1699 66.5921 64.1699 66.5829C64.1699 66.4851 64.1465 66.4155 64.0998 66.3755C64.037 66.321 63.9435 66.2935 63.8186 66.2935C63.7017 66.2935 63.6162 66.3131 63.5608 66.3532C63.5047 66.3932 63.464 66.4634 63.4373 66.5639L63.1955 66.5317C63.2176 66.4313 63.2536 66.3499 63.3044 66.2869C63.3545 66.2252 63.4279 66.1773 63.5228 66.1438C63.6183 66.1103 63.7284 66.0939 63.854 66.0939C63.9789 66.0939 64.0797 66.1077 64.1572 66.1366C64.2353 66.1648 64.2928 66.2009 64.3295 66.2442C64.3656 66.2869 64.3916 66.342 64.4056 66.4083C64.4143 66.4497 64.4183 66.5232 64.4183 66.6308V66.9518C64.4183 67.1762 64.423 67.318 64.4343 67.3771C64.445 67.4361 64.4657 67.4932 64.4964 67.5477H64.2387C64.2133 67.4991 64.1966 67.4407 64.1892 67.3738ZM64.1692 66.8356C64.0797 66.871 63.9448 66.9019 63.7652 66.9262C63.6643 66.9406 63.5922 66.9563 63.5501 66.9741C63.5081 66.9918 63.4753 67.018 63.4526 67.0528C63.4299 67.087 63.4179 67.1257 63.4179 67.1677C63.4179 67.232 63.4433 67.2852 63.4927 67.3278C63.5428 67.3705 63.6162 67.3928 63.7117 67.3928C63.8072 67.3928 63.8921 67.3725 63.9662 67.3311C64.0403 67.2904 64.0944 67.2353 64.1298 67.1644C64.1565 67.1106 64.1692 67.0299 64.1692 66.9242V66.8356Z" fill="#F04200"/>
<path d="M64.9234 66.1267H66.0727V67.549H65.8263V66.3262H65.1711V67.0344C65.1711 67.2005 65.1651 67.3094 65.1551 67.3613C65.1437 67.4144 65.1137 67.4604 65.0643 67.4998C65.0148 67.5385 64.9427 67.5582 64.8499 67.5582C64.7918 67.5582 64.7257 67.5549 64.6509 67.5477V67.3468H64.7584C64.8105 67.3468 64.8466 67.3409 64.8693 67.3311C64.8906 67.3206 64.906 67.3048 64.9127 67.2825C64.92 67.2609 64.924 67.1873 64.924 67.0646V66.1267H64.9234Z" fill="#F04200"/>
<path d="M67.262 65.5859H67.5037V67.1408L68.5756 65.5859H68.8434V67.549H68.6016V65.9981L67.5291 67.549H67.2626V65.5859H67.262Z" fill="#F04200"/>
<path d="M69.793 67.549V65.8169H69.1299V65.5853H70.7267V65.8169H70.0602V67.549H69.793Z" fill="#F04200"/>
<path d="M70.8723 66.9596V66.7181H71.633V66.9596H70.8723Z" fill="#F04200"/>
<path d="M72.1012 66.1267H73.1177V67.3508H73.2753V67.952H73.0723V67.549H71.9236V67.952H71.7192V67.3508H71.8501C72.0251 67.1204 72.1079 66.7122 72.1012 66.1267ZM72.3069 66.3262C72.2889 66.7876 72.2154 67.1302 72.0865 67.3514H72.8719V66.3262H72.3069Z" fill="#F04200"/>
<path d="M73.5483 66.1267H73.7954V67.211L74.4806 66.1267H74.7471V67.549H74.5V66.4706L73.8148 67.549H73.5483V66.1267Z" fill="#F04200"/>
<path d="M75.1196 68.0944V66.1267H75.3454V66.3118C75.3988 66.2389 75.4589 66.1845 75.5257 66.149C75.5931 66.1123 75.6739 66.0945 75.7688 66.0945C75.8936 66.0945 76.0038 66.126 76.098 66.1884C76.1942 66.2514 76.2656 66.3387 76.3137 66.4529C76.3625 66.5671 76.3865 66.6911 76.3865 66.827C76.3865 66.9727 76.3598 67.1033 76.3064 67.2208C76.2523 67.337 76.1748 67.4262 76.072 67.4879C75.9704 67.5503 75.8629 67.5811 75.7507 67.5811C75.6686 67.5811 75.5938 67.5647 75.5283 67.5306C75.4629 67.4965 75.4088 67.4538 75.3667 67.402V68.095H75.1196V68.0944ZM75.344 66.846C75.344 67.0292 75.3821 67.1644 75.4582 67.2523C75.5337 67.3396 75.6258 67.3829 75.734 67.3829C75.8442 67.3829 75.9391 67.3376 76.0165 67.2464C76.0947 67.1565 76.1341 67.0154 76.1341 66.8257C76.1341 66.6445 76.096 66.5087 76.0192 66.4181C75.9431 66.3282 75.8516 66.2836 75.7454 66.2836C75.6405 66.2836 75.547 66.3308 75.4656 66.4273C75.3848 66.5238 75.344 66.6629 75.344 66.846Z" fill="#F04200"/>
<path d="M77.6842 67.0909L77.94 67.1224C77.8992 67.2674 77.8251 67.381 77.7156 67.461C77.6067 67.5418 77.4678 67.5818 77.2982 67.5818C77.0845 67.5818 76.9155 67.5181 76.79 67.3895C76.6651 67.2615 76.6023 67.0817 76.6023 66.8507C76.6023 66.6117 76.6664 66.426 76.7926 66.2934C76.9182 66.1615 77.0831 66.0952 77.2841 66.0952C77.4792 66.0952 77.6388 66.1602 77.7623 66.2895C77.8865 66.4188 77.948 66.6012 77.948 66.8362C77.948 66.85 77.9473 66.8717 77.946 66.8999H76.8574C76.8674 67.0561 76.9122 67.1762 76.9936 67.2595C77.0751 67.3422 77.1773 67.3836 77.2988 67.3836C77.3897 67.3836 77.4671 67.36 77.5312 67.314C77.5954 67.2674 77.6461 67.1926 77.6842 67.0909ZM76.8714 66.7017H77.6869C77.6755 66.5809 77.6454 66.4923 77.5934 66.4326C77.5145 66.3394 77.4124 66.2928 77.2868 66.2928C77.1733 66.2928 77.0778 66.3302 77.0003 66.4043C76.9229 66.4779 76.8801 66.5776 76.8714 66.7017Z" fill="#F04200"/>
<path d="M78.2491 66.1267H78.4962V66.7417C78.575 66.7417 78.6298 66.7273 78.6619 66.6977C78.6939 66.6682 78.74 66.5822 78.8014 66.4398C78.8495 66.3275 78.8889 66.254 78.9196 66.2179C78.9497 66.1818 78.9851 66.1582 79.0238 66.1457C79.0639 66.1326 79.126 66.1274 79.2135 66.1274H79.2629V66.3269L79.1941 66.3256C79.1287 66.3256 79.0873 66.3354 79.0686 66.3538C79.0492 66.3735 79.0198 66.4319 78.9804 66.529C78.9423 66.6229 78.909 66.6866 78.8769 66.7227C78.8462 66.7588 78.7981 66.7909 78.7326 66.8198C78.8395 66.8474 78.9437 66.9438 79.0465 67.1086L79.317 67.5496H79.0452L78.7807 67.1086C78.7266 67.0206 78.6799 66.9622 78.6391 66.934C78.5991 66.9064 78.551 66.892 78.4949 66.892V67.5496H78.2478V66.1267H78.2491Z" fill="#F04200"/>
<path d="M79.379 66.1267H80.5651V66.3262H80.0949V67.549H79.8492V66.3262H79.379V66.1267Z" fill="#F04200"/>
<path d="M80.6782 66.8382C80.6782 66.5743 80.753 66.3794 80.9039 66.2521C81.0295 66.147 81.1824 66.0945 81.3628 66.0945C81.5638 66.0945 81.7274 66.1589 81.8549 66.2868C81.9818 66.4142 82.0459 66.5914 82.0459 66.8185C82.0459 67.0009 82.0179 67.1453 81.9611 67.2497C81.905 67.3547 81.8229 67.4361 81.7154 67.4938C81.6072 67.5522 81.4896 67.5811 81.3628 67.5811C81.1584 67.5811 80.9934 67.5175 80.8672 67.3895C80.741 67.2628 80.6782 67.0777 80.6782 66.8382ZM80.9327 66.8382C80.9327 67.02 80.9741 67.1565 81.0549 67.2464C81.1364 67.3376 81.2392 67.3829 81.3628 67.3829C81.4856 67.3829 81.5878 67.3376 81.6693 67.2464C81.7508 67.1545 81.7915 67.016 81.7915 66.8296C81.7915 66.6531 81.7508 66.5205 81.6686 66.4299C81.5865 66.3394 81.485 66.2941 81.3628 66.2941C81.2392 66.2941 81.1364 66.3394 81.0549 66.4293C80.9741 66.5198 80.9327 66.6557 80.9327 66.8382Z" fill="#F04200"/>
<path d="M82.3357 68.0944V66.1267H82.5614V66.3118C82.6142 66.2389 82.6743 66.1845 82.7417 66.149C82.8085 66.1123 82.89 66.0945 82.9842 66.0945C83.1097 66.0945 83.2192 66.126 83.3141 66.1884C83.4096 66.2514 83.481 66.3387 83.5298 66.4529C83.5779 66.5671 83.6019 66.6911 83.6019 66.827C83.6019 66.9727 83.5759 67.1033 83.5224 67.2208C83.469 67.337 83.3909 67.4262 83.288 67.4879C83.1858 67.5503 83.079 67.5811 82.9661 67.5811C82.884 67.5811 82.8099 67.5647 82.7444 67.5306C82.6783 67.4965 82.6249 67.4538 82.5828 67.402V68.095H82.3357V68.0944ZM82.5594 66.846C82.5594 67.0292 82.5982 67.1644 82.6736 67.2523C82.7491 67.3396 82.8419 67.3829 82.9501 67.3829C83.0596 67.3829 83.1545 67.3376 83.2319 67.2464C83.3107 67.1565 83.3501 67.0154 83.3501 66.8257C83.3501 66.6445 83.3114 66.5087 83.2353 66.4181C83.1591 66.3282 83.0676 66.2836 82.9615 66.2836C82.8559 66.2836 82.7631 66.3308 82.6816 66.4273C82.6002 66.5238 82.5594 66.6629 82.5594 66.846Z" fill="#F04200"/>
<path d="M83.8083 66.8382C83.8083 66.5743 83.8831 66.3794 84.0347 66.2521C84.1603 66.147 84.3126 66.0945 84.4929 66.0945C84.6939 66.0945 84.8582 66.1589 84.9851 66.2868C85.112 66.4142 85.1761 66.5914 85.1761 66.8185C85.1761 67.0009 85.148 67.1453 85.0913 67.2497C85.0352 67.3547 84.953 67.4361 84.8455 67.4938C84.738 67.5522 84.6204 67.5811 84.4929 67.5811C84.2892 67.5811 84.1236 67.5175 83.998 67.3895C83.8718 67.2628 83.8083 67.0777 83.8083 66.8382ZM84.0635 66.8382C84.0635 67.02 84.1035 67.1565 84.1857 67.2464C84.2665 67.3376 84.3693 67.3829 84.4929 67.3829C84.6158 67.3829 84.7186 67.3376 84.7994 67.2464C84.8809 67.1545 84.9223 67.016 84.9223 66.8296C84.9223 66.6531 84.8816 66.5205 84.7994 66.4299C84.7179 66.3394 84.6158 66.2941 84.4935 66.2941C84.37 66.2941 84.2671 66.3394 84.1863 66.4293C84.1029 66.5198 84.0635 66.6557 84.0635 66.8382Z" fill="#F04200"/>
<path d="M85.467 66.1267H86.0374C86.177 66.1267 86.2811 66.1385 86.3499 66.1608C86.4187 66.1838 86.4768 66.2258 86.5269 66.2862C86.575 66.3466 86.5997 66.4194 86.5997 66.5041C86.5997 66.5724 86.585 66.6308 86.5563 66.682C86.5276 66.7325 86.4842 66.7752 86.4267 66.808C86.4955 66.831 86.5523 66.873 86.5984 66.9333C86.6431 66.995 86.6665 67.0672 86.6665 67.1506C86.6571 67.2858 86.6077 67.3856 86.5176 67.4512C86.4274 67.5162 86.2972 67.5483 86.1262 67.5483H85.4684V66.1267H85.467ZM85.7141 66.7253H85.9779C86.0821 66.7253 86.1549 66.7194 86.1943 66.7095C86.2337 66.6984 86.2691 66.6767 86.3005 66.6446C86.3312 66.6117 86.3466 66.573 86.3466 66.5271C86.3466 66.4523 86.3192 66.4004 86.2651 66.3702C86.211 66.3407 86.1175 66.3262 85.9846 66.3262H85.7135V66.7253H85.7141ZM85.7141 67.3508H86.0394C86.1796 67.3508 86.2758 67.335 86.3279 67.3029C86.3806 67.2714 86.408 67.2169 86.4107 67.1394C86.4107 67.0941 86.3953 67.0515 86.3653 67.0128C86.3352 66.9734 86.2958 66.9491 86.2471 66.9392C86.1983 66.9287 86.1209 66.9242 86.014 66.9242H85.7141V67.3508Z" fill="#F04200"/>
<defs>
<linearGradient id="paint0_linear_562_1455" x1="115.5" y1="70.5712" x2="87.301" y2="70.5712" gradientUnits="userSpaceOnUse">
<stop offset="0.1707" stop-color="#C9CACC"/>
<stop offset="0.4878" stop-color="#656668"/>
</linearGradient>
<linearGradient id="paint1_linear_562_1455" x1="5.5" y1="70.5395" x2="33.7006" y2="70.5395" gradientUnits="userSpaceOnUse">
<stop offset="0.1707" stop-color="#C9CACC"/>
<stop offset="0.4878" stop-color="#656668"/>
</linearGradient>
<radialGradient id="paint2_radial_562_1455" cx="0" cy="0" r="1" gradientUnits="userSpaceOnUse" gradientTransform="translate(60.4109 44.3634) scale(62.0364 60.9679)">
<stop stop-color="#FCEBBA"/>
<stop offset="0.67" stop-color="#AC8E4A"/>
<stop offset="0.9951" stop-color="#6D5B30"/>
</radialGradient>
<linearGradient id="paint3_linear_562_1455" x1="61.3136" y1="34.1283" x2="61.3136" y2="78.8722" gradientUnits="userSpaceOnUse">
<stop stop-color="#7585FF"/>
<stop offset="0.3436" stop-color="#030394"/>
<stop offset="0.681" stop-color="#030394"/>
<stop offset="1" stop-color="#000047"/>
</linearGradient>
<linearGradient id="paint4_linear_562_1455" x1="61.6225" y1="10.426" x2="61.2908" y2="61.6191" gradientUnits="userSpaceOnUse">
<stop stop-color="white"/>
<stop offset="1" stop-color="#1A171B" stop-opacity="0"/>
</linearGradient>
<linearGradient id="paint5_linear_562_1455" x1="19.2343" y1="60.5476" x2="103.895" y2="60.5476" gradientUnits="userSpaceOnUse">
<stop stop-color="#C2C4C6"/>
<stop offset="0.5122" stop-color="#F8F8F9"/>
<stop offset="0.5833" stop-color="#EBEBEC"/>
<stop offset="0.7321" stop-color="#D4D5D7"/>
<stop offset="0.8739" stop-color="#C7C8CA"/>
<stop offset="1" stop-color="#C2C4C6"/>
</linearGradient>
<linearGradient id="paint6_linear_562_1455" x1="50.0009" y1="54.7001" x2="50.0009" y2="64.6643" gradientUnits="userSpaceOnUse">
<stop stop-color="#7585FF"/>
<stop offset="0.3436" stop-color="#030394"/>
<stop offset="0.681" stop-color="#030394"/>
<stop offset="1" stop-color="#000047"/>
</linearGradient>
<linearGradient id="paint7_linear_562_1455" x1="69.781" y1="54.6293" x2="69.781" y2="64.6419" gradientUnits="userSpaceOnUse">
<stop stop-color="#F9C400"/>
<stop offset="0.2638" stop-color="#F04200"/>
<stop offset="0.7055" stop-color="#F04200"/>
<stop offset="1" stop-color="#AB0000"/>
</linearGradient>
<linearGradient id="paint8_linear_562_1455" x1="76.1095" y1="54.8574" x2="76.1095" y2="64.4271" gradientUnits="userSpaceOnUse">
<stop stop-color="#F9C400"/>
<stop offset="0.2638" stop-color="#F04200"/>
<stop offset="0.7055" stop-color="#F04200"/>
<stop offset="1" stop-color="#AB0000"/>
</linearGradient>
<linearGradient id="paint9_linear_562_1455" x1="82.7172" y1="54.6298" x2="82.7172" y2="64.6424" gradientUnits="userSpaceOnUse">
<stop stop-color="#F9C400"/>
<stop offset="0.2638" stop-color="#F04200"/>
<stop offset="0.7055" stop-color="#F04200"/>
<stop offset="1" stop-color="#AB0000"/>
</linearGradient>
</defs>
</svg>
