<svg width="140" height="140" viewBox="0 0 140 140" fill="none" xmlns="http://www.w3.org/2000/svg">
<g clip-path="url(#clip0_259_4732)">
<path d="M-0.000244141 128.412V99.2819H25.1919V128.412H18.8588V105.303H6.33286V128.412H-0.000244141Z" fill="#231F20"/>
<path d="M35.9095 110.674C36.3708 109.886 37.4854 109.216 38.4487 108.658C39.4082 108.103 40.6187 107.826 42.0802 107.826C43.3535 107.826 44.5714 108.085 45.7339 108.599C46.8965 109.113 47.9188 109.841 48.7972 110.777C49.6755 111.713 50.373 112.83 50.8897 114.132C51.4027 115.434 51.6611 116.872 51.6611 118.444C51.6611 120.016 51.4027 121.455 50.8897 122.757C50.3767 124.059 49.6792 125.176 48.7972 126.115C47.9188 127.051 46.8965 127.776 45.7339 128.29C44.5714 128.804 43.3535 129.063 42.0802 129.063C40.6187 129.063 39.4082 128.786 38.4487 128.231C37.4891 127.676 36.7768 127.003 36.3155 126.215V137.2H30.226V108.477H35.9095V110.674ZM40.7405 113.522C40.091 113.522 39.4746 113.636 38.8952 113.866C38.3121 114.095 37.7991 114.428 37.3525 114.864C36.906 115.297 36.5554 115.815 36.297 116.41C36.0387 117.006 35.9132 117.686 35.9132 118.444C35.9132 119.203 36.0424 119.891 36.297 120.501C36.5554 121.111 36.906 121.625 37.3525 122.047C37.7991 122.468 38.3121 122.794 38.8952 123.023C39.4783 123.253 40.0947 123.371 40.7405 123.371C41.3864 123.371 42.0064 123.256 42.5858 123.023C43.169 122.794 43.682 122.468 44.1285 122.047C44.5751 121.625 44.9257 121.111 45.184 120.501C45.4424 119.891 45.5679 119.206 45.5679 118.444C45.5679 117.682 45.4387 117.006 45.184 116.41C44.9257 115.815 44.5751 115.297 44.1285 114.864C43.682 114.431 43.169 114.099 42.5858 113.866C42.0027 113.636 41.3864 113.522 40.7405 113.522Z" fill="#231F20"/>
<path d="M64.6521 107.826C66.1948 107.826 67.6231 108.088 68.9333 108.621C70.2471 109.15 71.3838 109.882 72.3434 110.818C73.3029 111.754 74.0485 112.874 74.5762 114.176C75.104 115.478 75.3697 116.902 75.3697 118.448C75.3697 119.994 75.1077 121.418 74.5762 122.72C74.0485 124.022 73.3029 125.139 72.3434 126.078C71.3838 127.014 70.2471 127.746 68.9333 128.275C67.6194 128.804 66.1948 129.067 64.6521 129.067C63.1095 129.067 61.6812 128.804 60.3673 128.275C59.0535 127.746 57.9168 127.014 56.9572 126.078C55.9976 125.143 55.2521 124.026 54.7244 122.72C54.1966 121.418 53.9346 119.994 53.9346 118.448C53.9346 116.902 54.1966 115.478 54.7244 114.176C55.2521 112.874 55.9976 111.757 56.9572 110.818C57.9168 109.882 59.0535 109.15 60.3673 108.621C61.6812 108.092 63.1095 107.826 64.6521 107.826ZM64.6521 123.367C65.2758 123.367 65.8627 123.253 66.4199 123.02C66.9735 122.79 67.4681 122.465 67.8999 122.043C68.3317 121.621 68.6712 121.107 68.9148 120.497C69.1584 119.887 69.2802 119.203 69.2802 118.441C69.2802 117.679 69.1584 117.002 68.9148 116.406C68.6712 115.811 68.3317 115.293 67.8999 114.86C67.4681 114.428 66.9735 114.095 66.4199 113.862C65.8663 113.633 65.2758 113.518 64.6521 113.518C64.0284 113.518 63.4416 113.633 62.8843 113.862C62.3307 114.091 61.8362 114.424 61.4044 114.86C60.9726 115.297 60.633 115.811 60.3895 116.406C60.1459 117.002 60.0241 117.682 60.0241 118.441C60.0241 119.199 60.1459 119.887 60.3895 120.497C60.633 121.107 60.9726 121.621 61.4044 122.043C61.8362 122.465 62.3307 122.79 62.8843 123.02C63.4379 123.249 64.0284 123.367 64.6521 123.367Z" fill="#231F20"/>
<path d="M82.6364 128.412V114.172H76.5875V108.477H94.7749V114.172H88.726V128.412H82.6364Z" fill="#231F20"/>
<path d="M106.71 107.826C108.253 107.826 109.681 108.088 110.991 108.621C112.305 109.15 113.442 109.882 114.402 110.818C115.361 111.754 116.107 112.874 116.634 114.176C117.162 115.478 117.428 116.902 117.428 118.448C117.428 119.994 117.166 121.418 116.634 122.72C116.107 124.022 115.361 125.139 114.402 126.078C113.442 127.014 112.305 127.746 110.991 128.275C109.678 128.804 108.253 129.067 106.71 129.067C105.168 129.067 103.739 128.804 102.426 128.275C101.112 127.746 99.975 127.014 99.0154 126.078C98.0559 125.143 97.3103 124.026 96.7826 122.72C96.2548 121.418 95.9928 119.994 95.9928 118.448C95.9928 116.902 96.2548 115.478 96.7826 114.176C97.3103 112.874 98.0559 111.757 99.0154 110.818C99.975 109.882 101.112 109.15 102.426 108.621C103.739 108.092 105.168 107.826 106.71 107.826ZM106.71 123.367C107.334 123.367 107.921 123.253 108.478 123.02C109.032 122.79 109.526 122.465 109.958 122.043C110.39 121.621 110.729 121.107 110.973 120.497C111.217 119.887 111.338 119.203 111.338 118.441C111.338 117.679 111.217 117.002 110.973 116.406C110.729 115.811 110.39 115.293 109.958 114.86C109.526 114.428 109.032 114.095 108.478 113.862C107.925 113.633 107.334 113.518 106.71 113.518C106.087 113.518 105.5 113.633 104.943 113.862C104.389 114.091 103.894 114.424 103.463 114.86C103.031 115.297 102.691 115.811 102.448 116.406C102.204 117.002 102.082 117.682 102.082 118.441C102.082 119.199 102.204 119.887 102.448 120.497C102.691 121.107 103.031 121.621 103.463 122.043C103.894 122.465 104.389 122.79 104.943 123.02C105.496 123.249 106.087 123.367 106.71 123.367Z" fill="#231F20"/>
<path d="M133.91 128.412V121.048H126.522V128.412H120.432V108.477H126.522V115.352H133.91V108.477H140V128.412H133.91Z" fill="#231F20"/>
<path d="M90.0066 2.80005H42.0064L26.9708 83.2263L54.0784 77.8041L61.9874 34.9742C62.2827 33.3986 61.349 31.8563 59.821 31.3866L53.1705 29.3487C52.0966 28.6977 52.5579 27.0407 53.8127 27.0407H80.7063C83.9798 27.0407 86.4526 30.0218 85.8473 33.247L78.6838 72.8813L105.651 67.485L112.615 30.166C115.306 15.956 104.437 2.80005 90.0066 2.80005Z" fill="url(#paint0_linear_259_4732)"/>
</g>
<defs>
<linearGradient id="paint0_linear_259_4732" x1="26.9708" y1="43.0113" x2="113.029" y2="43.0113" gradientUnits="userSpaceOnUse">
<stop stop-color="#2E3192"/>
<stop offset="1" stop-color="#00AEEF"/>
</linearGradient>
<clipPath id="clip0_259_4732">
<rect width="140" height="140" fill="white" transform="translate(-0.000244141)"/>
</clipPath>
</defs>
</svg>
