<svg width="24" height="24" viewBox="0 0 24 24" fill="none" xmlns="http://www.w3.org/2000/svg">
<mask id="mask0_383_3857" style="mask-type:alpha" maskUnits="userSpaceOnUse" x="0" y="0" width="24" height="24">
<path fill-rule="evenodd" clip-rule="evenodd" d="M13.084 6.31015C11.1498 7.114 7.283 8.77971 1.48535 11.3056C0.543935 11.6802 0.050024 12.0465 0.00527372 12.4045C-0.0709675 13.0111 0.68813 13.2498 1.71904 13.573C1.85992 13.6177 2.00578 13.6625 2.15494 13.7122C3.17094 14.042 4.53665 14.4282 5.24603 14.4431C5.89077 14.4564 6.61008 14.1912 7.40399 13.6475C12.8204 9.98962 15.6165 8.1416 15.7922 8.10182C15.9165 8.07365 16.0889 8.03718 16.2049 8.1416C16.3209 8.24436 16.3093 8.43994 16.2977 8.49297C16.2215 8.81285 13.248 11.5791 11.7066 13.0111C11.226 13.4569 10.8862 13.7735 10.8166 13.8464C10.6608 14.0072 10.5017 14.1613 10.3492 14.3089C9.40449 15.2171 8.69843 15.9 10.389 17.0138C11.2011 17.5491 11.8508 17.9916 12.4989 18.4325C13.2066 18.9148 13.9127 19.3955 14.8276 19.9954C15.0596 20.1479 15.2817 20.3054 15.4988 20.4595C16.3226 21.0479 17.0634 21.575 17.9783 21.4921C18.5087 21.4424 19.0589 20.9435 19.3374 19.4535C19.9954 15.9298 21.2915 8.29906 21.5915 5.15328C21.6097 4.89209 21.5986 4.62968 21.5583 4.37098C21.5342 4.16203 21.4325 3.96977 21.2733 3.83231C21.0362 3.6384 20.6683 3.59696 20.5026 3.60028C19.7551 3.61354 18.6081 4.01297 13.084 6.31015Z" fill="#2E3192"/>
</mask>
<g mask="url(#mask0_383_3857)">
<rect width="24" height="24" fill="#2E3192"/>
</g>
</svg>
