<svg width="24" height="24" viewBox="0 0 24 24" fill="none" xmlns="http://www.w3.org/2000/svg">
<mask id="mask0_383_3852" style="mask-type:alpha" maskUnits="userSpaceOnUse" x="0" y="0" width="24" height="24">
<path d="M23.4991 6.22778C23.3625 5.71895 23.0946 5.25493 22.7223 4.88216C22.35 4.50938 21.8863 4.24093 21.3777 4.10367C19.5054 3.6001 12 3.6001 12 3.6001C12 3.6001 4.49464 3.6001 2.62232 4.10099C2.11345 4.23781 1.64953 4.50611 1.27716 4.87895C0.904787 5.2518 0.637069 5.71605 0.500893 6.2251C-1.02179e-07 8.1001 0 12.0108 0 12.0108C0 12.0108 -1.02179e-07 15.9215 0.500893 17.7938C0.776786 18.8278 1.59107 19.6421 2.62232 19.918C4.49464 20.4215 12 20.4215 12 20.4215C12 20.4215 19.5054 20.4215 21.3777 19.918C22.4116 19.6421 23.2232 18.8278 23.4991 17.7938C24 15.9215 24 12.0108 24 12.0108C24 12.0108 24 8.1001 23.4991 6.22778ZM9.61607 15.6001V8.42153L15.8304 11.984L9.61607 15.6001Z" fill="#2E3192"/>
</mask>
<g mask="url(#mask0_383_3852)">
<rect width="24" height="24" fill="#2E3192"/>
</g>
</svg>
