<svg width="24" height="24" viewBox="0 0 24 24" fill="none" xmlns="http://www.w3.org/2000/svg">
<mask id="mask0_706_2768" style="mask-type:alpha" maskUnits="userSpaceOnUse" x="0" y="0" width="24" height="24">
<path d="M0 4.00009H4.10746C4.24238 11.3354 7.27044 14.4425 9.66897 15.0831V4H13.5366V10.3263C15.9051 10.0541 18.3935 7.17117 19.233 4H23.1006C22.7841 5.64463 22.1535 7.20182 21.2482 8.57421C20.3428 9.94659 19.1822 11.1047 17.8388 11.976C19.3388 12.7715 20.6635 13.8982 21.7256 15.2814C22.7877 16.6646 23.5629 18.2729 24 20H19.7427C19.3504 18.4998 18.5521 17.1568 17.448 16.1396C16.3439 15.1224 14.9831 14.4762 13.5366 14.2823V20H13.0718C4.87199 20 0.194905 13.994 0 4V4.00009Z" fill="#2E3192"/>
</mask>
<g mask="url(#mask0_706_2768)">
<rect width="24" height="24" fill="#2E3192"/>
</g>
</svg>
